# xmcd
#
# Track frame offsets: 
#        150
#        15580
#        28928
#        45093
#        61718
#        82196
#        92150
#        114766
#        128189
#        140062
#        156164
#        174422
#        186797
#        207467
#        222670
#        239156
#        253150
#        268029
#        283369
#
# Disc length: 3925 seconds
#
# Revision: 2
# Processed by: cddbd v1.5.2PL0 Copyright (c) Steve Scherf et al.
# Submitted via: ExactAudioCopyFreeDBPlugin 1.0
#
DISCID=210f5313
DTITLE=Country Trail Band - Breng Dank (Nederlandse gospels in country
DTITLE=stijl)
DYEAR=2004
DGENRE=Country
TTITLE0=Country Trail Band (Arjan and Efi Knevel) - Zijn Naam is Wonderb
TTITLE0=aar
TTITLE1=Country Trail Band (Twice) - Heer, ik prijs Uw Grote Naam
TTITLE2=Country Trail Band (Marescha van der Stelt) - Als een hert dat
TTITLE2=verlangt naar water
TTITLE3=Country Trail Band (Harry en Marijke Govers) - Sinds Jezus nu 
TTITLE3=woont in mijn hart
TTITLE4=Country Trail Band (Astrid Langeland) - Abba Vader
TTITLE5=Country Trail Band (Hans Steeds) - Daar juicht een toon, daar 
TTITLE5=klinkt een stem
TTITLE6=Country Trail Band (Thecla Rutting) - Heer, ik konm tot U
TTITLE7=Country Trail Band (Wim Pols) - De dag door Uwe gunst ontvange
TTITLE7=n
TTITLE8=Country Trail Band (Iris de la Bey) - Samen in de naam van Jez
TTITLE8=us
TTITLE9=Country Trail Band (Arjan and Efi Knevel) - Ik weet dat mijn Ver
TTITLE9=losser leeft
TTITLE10=Country Trail Band (Marescha van der Stelt) - Mijn Jezus, ik 
TTITLE10=hou van U
TTITLE11=Country Trail Band (Twice) - Ik zie een poort wijd open staan
TTITLE12=Country Trail Band (Astrid Langeland) - Is uw paspoort geteke
TTITLE12=nd
TTITLE13=Country Trail Band (Wim Pols) - Zingt een nieuw lied voor God
TTITLE13=de Here
TTITLE14=Country Trail Band (Thecla Rutting) - Nader mijn God bij U
TTITLE15=Country Trail Band (Hans Steeds) - Wat de toekomst brenge mog
TTITLE15=e
TTITLE16=Country Trail Band (Iris de la Bey) - Er is vreugde
TTITLE17=Country Trail Band (Harry en Marijke Govers) - Breng dankaan 
TTITLE17=de Eeuwige
TTITLE18=Country Trail Band (Wim Pols) - De Heer is mijn Herder
EXTD=
EXTT0=
EXTT1=
EXTT2=
EXTT3=
EXTT4=
EXTT5=
EXTT6=
EXTT7=
EXTT8=
EXTT9=
EXTT10=
EXTT11=
EXTT12=
EXTT13=
EXTT14=
EXTT15=
EXTT16=
EXTT17=
EXTT18=
PLAYORDER=
